<?xml version="1.0" encoding="UTF-8"?>
<svg xmlns="http://www.w3.org/2000/svg" xmlns:xlink="http://www.w3.org/1999/xlink" width="100px" height="100px" viewBox="0 0 100 100" version="1.1">
<defs>
<linearGradient id="linear0" gradientUnits="userSpaceOnUse" x1="16" y1="2" x2="16" y2="30" gradientTransform="matrix(3.125,0,0,3.125,0,0)">
<stop offset="0" style="stop-color:rgb(21.568627%,73.333333%,99.607843%);stop-opacity:1;"/>
<stop offset="1" style="stop-color:rgb(0%,49.019608%,73.333333%);stop-opacity:1;"/>
</linearGradient>
</defs>
<g id="surface1">
<path style=" stroke:none;fill-rule:nonzero;fill:url(#linear0);" d="M 93.75 50 C 93.75 25.835938 74.164062 6.25 50 6.25 C 25.835938 6.25 6.25 25.835938 6.25 50 C 6.25 74.164062 25.835938 93.75 50 93.75 C 74.164062 93.75 93.75 74.164062 93.75 50 Z M 93.75 50 "/>
<path style=" stroke:none;fill-rule:nonzero;fill:rgb(100%,100%,100%);fill-opacity:1;" d="M 71.832031 31.902344 C 72.222656 29.386719 69.828125 27.398438 67.589844 28.382812 L 23.015625 47.953125 C 21.410156 48.65625 21.527344 51.089844 23.191406 51.617188 L 32.382812 54.546875 C 34.140625 55.105469 36.039062 54.816406 37.570312 53.757812 L 58.296875 39.4375 C 58.921875 39.007812 59.601562 39.894531 59.070312 40.445312 L 44.148438 55.828125 C 42.703125 57.320312 42.992188 59.847656 44.730469 60.9375 L 61.433594 71.414062 C 63.308594 72.589844 65.71875 71.40625 66.066406 69.144531 Z M 71.832031 31.902344 "/>
</g>
</svg>
