<svg width="870" height="594" viewBox="0 0 870 594" fill="none" xmlns="http://www.w3.org/2000/svg">
<path opacity="0.1" d="M0.943623 98.5038C30.6832 57.0944 68.2752 24.58 115.439 -1.33608C145.516 -17.8627 176.427 -33.579 207.94 -47.8688C219.3 -53.0196 228.077 -58.1488 217.115 -45.3145C163.327 17.6621 102.759 75.4723 43.5495 134.375C6.86387 170.871 -31.0856 209.024 -59.886 250.874C-73.1642 270.168 -57.4328 257.218 -48.3234 250.207C-8.9455 219.901 34.1141 192.65 74.9698 163.916C140.775 117.635 206.714 70.9768 274.803 27.3165C278.494 24.9499 302.009 5.68443 309.239 7.10422C312.373 7.71949 297.787 32.1747 296.294 34.091C282.742 51.4831 265.23 66.4061 250.421 82.9559C249.947 83.4853 241.169 94.387 242.503 94.1726C263.331 90.8263 286.005 77.4345 305.595 70.4065C323.018 64.1554 340.403 57.8688 357.627 51.1937C361.169 49.821 373.596 43.1976 378.867 43.1976C379.6 43.1976 364.816 60.4125 364.162 61.1888C359.074 67.2287 337.922 86.8228 357.627 82.7338C370.027 80.1604 385.256 73.405 398.096 73.405C401.601 73.405 402.371 74.8353 408.653 72.5166C430.031 64.6259 452.842 60.1654 474.51 52.9706C545.226 29.4895 608.74 -11.217 670.573 -48.7573C680.265 -54.642 705.723 -74.8281 700.233 -65.6379C696.809 -59.9051 690.334 -54.2451 685.78 -49.5347" stroke="black" stroke-linecap="round"/>
<path opacity="0.1" d="M270.577 538.086C262.269 556.966 251.766 571.79 238.59 583.606C230.188 591.141 221.552 598.307 212.748 604.822C209.574 607.17 207.122 609.509 210.185 603.657C225.212 574.944 242.133 548.587 258.674 521.732C268.923 505.092 279.525 487.697 287.571 468.617C291.281 459.82 286.886 465.724 284.341 468.921C273.34 482.738 261.31 495.163 249.896 508.263C231.512 529.364 213.09 550.637 194.068 570.543C193.037 571.622 186.467 580.405 184.447 579.758C183.572 579.477 187.647 568.328 188.064 567.454C191.85 559.524 196.743 552.721 200.88 545.175C201.012 544.934 203.465 539.963 203.092 540.061C197.273 541.587 190.938 547.692 185.466 550.897C180.598 553.747 175.741 556.613 170.929 559.656C169.94 560.282 166.468 563.302 164.995 563.302C164.791 563.302 168.921 555.453 169.104 555.099C170.525 552.346 176.434 543.412 170.929 545.276C167.465 546.45 163.21 549.53 159.623 549.53C158.644 549.53 158.429 548.878 156.674 549.935C150.702 553.532 144.329 555.566 138.275 558.846C118.519 569.552 100.775 588.111 83.5006 605.227C80.7927 607.91 73.6807 617.113 75.2142 612.923C76.1708 610.309 77.9797 607.729 79.2521 605.581" stroke="black" stroke-linecap="round"/>
<path opacity="0.1" d="M450 577.545C472.548 523.613 509.16 465.676 571.78 456.21C581.654 454.718 594.564 452.418 602.819 459.923C624.59 479.715 620.985 521.038 608.463 544.575C598.807 562.725 584.202 579.439 571.483 595.367C558.746 611.318 545.886 627.422 530.939 641.405C520.448 651.221 507.75 663.021 493.44 666.95C491.072 667.6 481.96 670.868 482.301 665.91C482.848 657.992 496.067 644.561 499.306 640.811C518.041 619.125 537.838 597.378 560.196 579.327C586.573 558.032 619.542 544.887 647.744 526.085C658.797 518.717 669.469 510.786 680.492 503.363C681.155 502.916 691.608 494.539 692.373 495.195C695.462 497.843 688.003 512.838 687.026 514.873C678.216 533.226 667.783 550.82 659.551 569.451C658.836 571.07 654.907 579.289 655.69 578.733C663.872 572.919 670.916 566.427 679.897 561.654C683.08 559.963 716.401 544.625 716.432 544.872C717.222 551.195 711.694 560.372 710.937 567.001C709.971 575.453 732.247 553.308 732.768 552.892C748.074 540.675 763.874 529.191 780.292 518.511C791.763 511.05 806.502 504.521 810.886 490.071C815.477 474.936 811.194 458.385 801.306 446.483C797.795 442.256 789.058 439.583 786.084 435.27C785.445 434.343 827.593 410.012 832.494 405.345C834.655 403.286 836.496 400.865 835.167 406.384C829.761 428.842 821.87 450.895 815.415 473.066C802.438 517.64 785.679 561.219 765.738 603.163C743 650.99 710.905 691.506 679.303 733.557C674.748 739.619 670.365 745.799 666.531 752.344C666.29 752.756 663.87 756.491 666.457 753.904C693.339 727.022 721.134 701.071 748.065 674.227C788.441 633.98 830.685 594.657 866.355 550.07C876.447 537.455 886.087 524.461 896.429 512.051" stroke="black" stroke-linecap="round"/>
<path opacity="0.1" d="M926 53.5488C913.676 75.3174 893.665 98.7022 859.44 102.523C854.043 103.125 846.987 104.054 842.475 101.024C830.576 93.0358 832.546 76.3565 839.391 66.8563C844.668 59.5305 852.651 52.7842 859.602 46.3556C866.564 39.9172 873.593 33.4173 881.762 27.773C887.496 23.8111 894.436 19.0482 902.257 17.4627C903.552 17.2004 908.532 15.8813 908.345 17.8823C908.047 21.0784 900.822 26.4992 899.051 28.0128C888.811 36.766 877.991 45.5437 865.771 52.8295C851.354 61.4249 833.335 66.7305 817.921 74.3193C811.88 77.2935 806.047 80.4946 800.023 83.4907C799.66 83.6712 793.947 87.0522 793.529 86.7876C791.841 85.7189 795.917 79.6662 796.451 78.8451C801.266 71.4371 806.968 64.3357 811.468 56.8158C811.859 56.1624 814.006 52.8449 813.578 53.0693C809.106 55.4159 805.256 58.0363 800.347 59.9628C798.608 60.6454 780.396 66.8362 780.379 66.7365C779.947 64.1843 782.969 60.4802 783.383 57.8048C783.911 54.3934 771.735 63.3317 771.45 63.4995C763.085 68.4307 754.449 73.0658 745.476 77.3765C739.206 80.3882 731.15 83.0232 728.754 88.8557C726.245 94.9648 728.586 101.645 733.99 106.449C735.909 108.155 740.684 109.234 742.31 110.975C742.659 111.349 719.623 121.17 716.944 123.054C715.763 123.884 714.757 124.862 715.483 122.634C718.438 113.569 722.751 104.668 726.279 95.7193C733.372 77.7281 742.532 60.1385 753.43 43.2085C765.858 23.9043 783.4 7.55091 800.672 -9.42207C803.162 -11.8688 805.557 -14.363 807.653 -17.005C807.784 -17.1711 809.107 -18.6786 807.693 -17.6344C793.001 -6.78402 777.809 3.69029 763.09 14.5254C741.022 30.7702 717.933 46.6419 698.437 64.6384C692.921 69.7301 687.652 74.9752 682 79.984" stroke="black" stroke-linecap="round"/>
<path opacity="0.1" d="M-5 465.416C-5 451.477 -2.8565 441.41 6 430.055C12.8572 421.264 25.5476 414 36.8 414C39.1217 414 39.0753 414.765 40.4178 416.758C44.3771 422.636 47.5352 427.785 50.0489 434.488C55.6759 449.492 47.6781 468.217 40.2711 481.274C36.4479 488.014 29.4233 493.123 22.4756 496.246C17.2703 498.585 16.5761 492.831 14.4578 488.563C11.6918 482.99 8.76812 476.636 12.3067 470.833C15.2106 466.071 19.0583 461.746 23.7467 458.718C28.6471 455.554 33.3082 453.428 39.0978 452.611C42.1993 452.174 48.2022 450.942 51.32 452.513C55.636 454.687 58.4021 462.661 56.4044 467.189C53.6475 473.438 57.9155 464.435 60.56 462.363C62.1633 461.106 67.0895 460.984 69.0178 460.984C71.7246 460.984 71.7952 465.437 71.5111 467.583C71.0881 470.779 70.9253 470.074 71.6089 467.091C72.8518 461.665 75.2395 458.664 80.4578 456.945C84.1727 455.722 85.2933 455.83 86.52 459.802C88.5572 466.398 90.4221 472.223 89.8445 479.206C88.6025 494.219 84.0369 513.906 71.3644 523.481C70.0587 524.467 61.88 530.76 61.88 526.583C61.88 519.555 64.5426 512.267 67.5511 506.047C70.8052 499.318 87.3231 491.091 94.44 494.473C97.6499 495.998 101.061 496.786 102.36 500.383C103.036 502.256 103.146 503.068 105 503.535" stroke="black" stroke-linecap="round"/>
<path opacity="0.1" d="M552 107.578C558.036 101.21 571.595 86.9864 578.141 79.8139C578.947 78.9307 586.067 72.3017 586.067 69.1484C586.067 67.0135 584.751 66.4541 582.947 67.5401C574.399 72.6885 569.642 84.3264 567.98 93.7805C566.997 99.3675 564.754 104.571 563.553 110.117C562.37 115.576 563.649 113.424 568.317 110.668C579.807 103.883 590.456 96.9043 600.909 88.4478C606.316 84.0733 611.741 79.828 614.569 73.3384C614.928 72.5157 616.43 68.2066 614.063 70.4181C607.445 76.6039 602.029 82.5455 597.704 90.6486C594.388 96.863 591.709 103.765 589.567 110.456C589.126 111.834 587.018 115.858 590.452 112.995C595.801 108.536 601.28 105.345 605.842 100.002C606.898 98.7649 608.457 97.4824 609.341 96.1506C609.837 95.4049 607.393 97.9434 608.076 98.5207C609.177 99.4515 614.482 97.2298 615.624 96.9548C620.024 95.8947 618.821 96.5096 616.973 99.5365C613.824 104.693 622.009 98.4078 623.93 97.251C624.941 96.6418 623.513 98.5264 623.424 98.817C622.752 101.007 625.886 100.079 626.923 99.9597C629.406 99.6749 636.031 99.8312 637 96.9125" stroke="black" stroke-linecap="round"/>
</svg>
