<svg width="24" height="14" viewBox="0 0 24 14" fill="none" xmlns="http://www.w3.org/2000/svg">
<path d="M23.8727 12.3663C23.8437 12.3037 23.8166 12.2517 23.7914 12.2101C23.375 11.4602 22.5793 10.5397 21.4047 9.44835L21.3799 9.42335L21.3675 9.4111L21.3549 9.39854H21.3423C20.8092 8.89036 20.4716 8.54867 20.3303 8.37374C20.0716 8.04049 20.0137 7.70318 20.155 7.36141C20.2549 7.10318 20.6301 6.55785 21.2797 5.72465C21.6213 5.28309 21.892 4.92919 22.0918 4.66256C23.5331 2.74645 24.1579 1.52202 23.9662 0.98881L23.8918 0.864206C23.8418 0.789189 23.7127 0.720562 23.5046 0.657975C23.2961 0.59552 23.0296 0.585191 22.7047 0.626814L19.106 0.651673C19.0477 0.631015 18.9644 0.632941 18.856 0.657975C18.7477 0.68301 18.6935 0.695572 18.6935 0.695572L18.6308 0.726865L18.5811 0.76446C18.5395 0.78932 18.4936 0.833044 18.4436 0.895543C18.3938 0.957823 18.3522 1.03091 18.319 1.1142C17.9272 2.1222 17.4817 3.05938 16.9817 3.9257C16.6735 4.44228 16.3904 4.88998 16.1319 5.26904C15.8737 5.64797 15.6571 5.92716 15.4823 6.10613C15.3072 6.28526 15.1492 6.42878 15.0073 6.53719C14.8657 6.64564 14.7575 6.69147 14.6826 6.6747C14.6076 6.65794 14.5369 6.64131 14.47 6.62468C14.3534 6.54966 14.2597 6.44764 14.189 6.31853C14.118 6.18942 14.0702 6.02691 14.0452 5.83114C14.0203 5.63524 14.0056 5.46674 14.0014 5.32506C13.9975 5.18356 13.9993 4.98342 14.0078 4.72519C14.0164 4.46684 14.0203 4.29203 14.0203 4.20038C14.0203 3.88377 14.0265 3.54016 14.0389 3.16945C14.0515 2.79875 14.0617 2.50503 14.0702 2.28864C14.0787 2.07204 14.0827 1.84288 14.0827 1.60128C14.0827 1.35969 14.068 1.17022 14.0389 1.03271C14.0102 0.895367 13.9661 0.762053 13.908 0.63281C13.8496 0.503697 13.7641 0.403821 13.6519 0.332919C13.5394 0.262104 13.3996 0.205907 13.2333 0.164153C12.7917 0.0642334 12.2294 0.0101812 11.5462 0.00177798C9.99681 -0.0148535 9.00124 0.0851976 8.55972 0.3018C8.38478 0.393317 8.22648 0.518359 8.08494 0.676532C7.93495 0.859872 7.91402 0.959924 8.0223 0.97638C8.52221 1.05127 8.87611 1.2304 9.0844 1.51362L9.15946 1.6637C9.21784 1.77198 9.27614 1.96367 9.33448 2.23853C9.39273 2.51339 9.43033 2.81744 9.44687 3.1505C9.48845 3.75873 9.48845 4.27938 9.44687 4.7125C9.40516 5.14579 9.36577 5.48311 9.32818 5.7247C9.29058 5.96629 9.23439 6.16206 9.15946 6.31196C9.0844 6.46191 9.03446 6.55356 9.00942 6.58682C8.98443 6.62008 8.9636 6.64105 8.94706 6.64927C8.83878 6.69077 8.72616 6.71191 8.60961 6.71191C8.49289 6.71191 8.35134 6.65352 8.18477 6.53684C8.01823 6.42016 7.8454 6.25988 7.66626 6.05575C7.48712 5.85158 7.28509 5.56626 7.06009 5.19976C6.83526 4.83325 6.60198 4.40009 6.36039 3.90027L6.1605 3.5378C6.03555 3.30461 5.86486 2.96506 5.64825 2.51947C5.43152 2.0737 5.23995 1.64251 5.07342 1.22598C5.00685 1.05105 4.90684 0.917864 4.77357 0.826216L4.71103 0.78862C4.66945 0.755357 4.60271 0.720037 4.51115 0.682397C4.41945 0.644802 4.32378 0.617841 4.22373 0.601253L0.799884 0.626113C0.450012 0.626113 0.21262 0.705375 0.0876214 0.86368L0.0375958 0.938565C0.0126049 0.980275 0 1.04689 0 1.13858C0 1.23023 0.0249909 1.34271 0.0750165 1.47589C0.574835 2.6506 1.11838 3.7835 1.70564 4.87479C2.29291 5.96607 2.80323 6.84513 3.2363 7.51118C3.66946 8.1777 4.11098 8.80677 4.56086 9.39806C5.01075 9.98957 5.30854 10.3686 5.45424 10.5352C5.60011 10.702 5.71469 10.8267 5.79798 10.91L6.11043 11.2099C6.31036 11.4098 6.60395 11.6493 6.99133 11.9284C7.3788 12.2075 7.80776 12.4824 8.27843 12.7534C8.74918 13.0239 9.29684 13.2446 9.9217 13.4154C10.5465 13.5863 11.1546 13.6549 11.7461 13.6218H13.1831C13.4746 13.5966 13.6954 13.505 13.8455 13.3468L13.8952 13.2842C13.9286 13.2344 13.9599 13.1572 13.9888 13.0533C14.018 12.9491 14.0326 12.8344 14.0326 12.7096C14.024 12.3515 14.0513 12.0287 14.1136 11.7413C14.1759 11.4541 14.2469 11.2374 14.3263 11.0916C14.4056 10.9458 14.4952 10.8228 14.5948 10.7231C14.6947 10.6232 14.7659 10.5627 14.8076 10.5419C14.8491 10.5209 14.8822 10.5067 14.9072 10.4981C15.1072 10.4315 15.3425 10.496 15.6135 10.692C15.8842 10.8878 16.1382 11.1295 16.3758 11.4168C16.6132 11.7043 16.8985 12.0269 17.2317 12.3851C17.565 12.7433 17.8565 13.0097 18.1063 13.1849L18.3562 13.3348C18.523 13.4349 18.7396 13.5265 19.0062 13.6098C19.2724 13.693 19.5056 13.7139 19.7058 13.6722L22.9046 13.6224C23.221 13.6224 23.4672 13.57 23.6418 13.466C23.8168 13.3619 23.9207 13.2472 23.9543 13.1224C23.9877 12.9975 23.9895 12.8558 23.9606 12.6973C23.931 12.5393 23.9018 12.4288 23.8727 12.3663Z" fill="#1585C6"/>
</svg>
