<svg width="20" height="20" viewBox="0 0 20 20" fill="none" xmlns="http://www.w3.org/2000/svg">
<g clip-path="url(#clip0_890_681)">
<path fill-rule="evenodd" clip-rule="evenodd" d="M9.998 2H10.002C14.413 2 18 5.589 18 10C18 14.411 14.413 18 10.002 18C8.375 18 6.866 17.516 5.601 16.678L2.526 17.661L3.523 14.689C2.564 13.372 2 11.75 2 10C2 5.588 5.587 2 9.998 2ZM13.0871 14.4261C13.6981 14.2941 14.4641 13.8421 14.6571 13.2971C14.85 12.7511 14.85 12.2861 14.7941 12.1871C14.7488 12.1085 14.6419 12.057 14.4823 11.9802C14.4407 11.9602 14.3956 11.9384 14.3471 11.9141C14.1121 11.7971 12.9691 11.2321 12.7531 11.1571C12.5411 11.0771 12.3391 11.1051 12.1791 11.3311C12.1486 11.3737 12.1182 11.4164 12.0881 11.4588C11.895 11.7303 11.7088 11.9922 11.5541 12.1591C11.4131 12.3091 11.1831 12.3281 10.9901 12.2481C10.969 12.2393 10.9449 12.2295 10.9179 12.2186C10.6123 12.0952 9.9345 11.8215 9.11405 11.0911C8.42205 10.4751 7.95205 9.70806 7.81605 9.47806C7.68252 9.24733 7.7977 9.11203 7.90415 8.98699C7.90612 8.98468 7.90809 8.98237 7.91005 8.98006C7.97868 8.89514 8.04528 8.82443 8.11221 8.75337C8.16036 8.70226 8.20868 8.65096 8.25805 8.59406C8.26538 8.58561 8.27252 8.57741 8.27946 8.56942C8.38429 8.44889 8.44671 8.37712 8.51705 8.22706C8.59705 8.07206 8.54005 7.91206 8.48305 7.79406C8.44383 7.71142 8.20159 7.12367 7.99362 6.61908C7.90462 6.40313 7.82189 6.20242 7.76405 6.06306C7.60905 5.69206 7.49105 5.67806 7.25605 5.66806C7.24885 5.6677 7.24158 5.66733 7.23423 5.66696C7.15995 5.6632 7.07814 5.65906 6.98805 5.65906C6.68205 5.65906 6.36305 5.74906 6.17005 5.94606C6.16331 5.95295 6.15628 5.9601 6.14898 5.96751C5.90207 6.21863 5.35205 6.778 5.35205 7.89306C5.35205 9.01027 6.14476 10.0915 6.29143 10.2915C6.29547 10.2971 6.29902 10.3019 6.30205 10.3061C6.31088 10.3176 6.32751 10.3417 6.35172 10.3768C6.6512 10.8105 8.10989 12.9229 10.2851 13.8241C12.1231 14.5861 12.6691 14.5151 13.0871 14.4261Z" fill="#0C94DD"/>
</g>
<defs>
<clipPath id="clip0_890_681">
<rect width="16" height="16" fill="white" transform="translate(2 2)"/>
</clipPath>
</defs>
</svg>
