<svg width="22" height="16" viewBox="0 0 22 16" fill="none" xmlns="http://www.w3.org/2000/svg">
<path d="M21.1425 1.32908C20.3484 0.385071 18.8822 0 16.0821 0H5.91772C3.05353 0 1.5625 0.40991 0.771348 1.41496C0 2.39488 0 3.83872 0 5.83703V9.64579C0 13.5172 0.9152 15.4827 5.91772 15.4827H16.0821C18.5104 15.4827 19.8559 15.143 20.7264 14.3099C21.6191 13.4556 22 12.0607 22 9.64579V5.83703C22 3.72964 21.9403 2.27728 21.1425 1.32908ZM14.1241 8.26725L9.50847 10.6795C9.40528 10.7334 9.29245 10.7602 9.17975 10.7602C9.05215 10.7602 8.92483 10.7259 8.81206 10.6576C8.59973 10.5289 8.47007 10.2988 8.47007 10.0505V5.24146C8.47007 4.99365 8.59937 4.76371 8.81128 4.63497C9.02326 4.50624 9.28691 4.49744 9.50684 4.6117L14.1224 7.00842C14.3573 7.13034 14.5047 7.37277 14.5051 7.63726C14.5054 7.90197 14.3585 8.14476 14.1241 8.26725Z" fill="#1585C6"/>
</svg>
