<svg width="180" height="80" viewBox="0 0 180 80" fill="none" xmlns="http://www.w3.org/2000/svg">
<path d="M5.41152 67.2496C5.41152 67.3063 5.39246 67.3544 5.35134 67.3958C5.31172 67.4354 5.26157 67.456 5.2049 67.456H4.71094C4.65428 67.456 4.60589 67.4354 4.56452 67.3958C4.52515 67.3544 4.50434 67.3063 4.50434 67.2496V65.1306C3.96048 65.2219 3.458 65.2668 2.99664 65.2668C2.29432 65.2668 1.78482 65.1306 1.47164 64.857C1.15671 64.5835 1 64.1685 1 63.6144V61.9843C1 61.9277 1.02082 61.8795 1.06018 61.8381C1.0998 61.7985 1.14994 61.778 1.20661 61.778H1.70584C1.75899 61.778 1.80739 61.7985 1.85026 61.8381C1.89163 61.8795 1.91219 61.9277 1.91219 61.9843V63.6144C1.91219 63.9707 2.0002 64.2116 2.17723 64.339C2.353 64.4682 2.68848 64.5318 3.18244 64.5318C3.58337 64.5318 4.02417 64.494 4.50434 64.42V61.9843C4.50434 61.9277 4.52515 61.8795 4.56452 61.8381C4.60589 61.7985 4.65428 61.778 4.71094 61.778H5.2049C5.26157 61.778 5.31172 61.7985 5.35134 61.8381C5.39246 61.8795 5.41152 61.9277 5.41152 61.9843V67.2496ZM11.162 67.2496C11.162 67.3063 11.1429 67.3544 11.1051 67.3958C11.0689 67.4354 11.0243 67.456 10.9689 67.456H10.4511C10.396 67.456 10.3496 67.4354 10.3115 67.3958C10.2721 67.3544 10.253 67.3063 10.253 67.2496V67.0533C9.70568 67.3684 9.16006 67.5267 8.61446 67.5267C7.41492 67.5267 6.81415 66.8106 6.81415 65.3786V61.9843C6.81415 61.9277 6.83496 61.8795 6.87433 61.8381C6.9157 61.7985 6.96409 61.778 7.02075 61.778H7.51998C7.57489 61.778 7.62153 61.7985 7.6609 61.8381C7.70227 61.8795 7.72308 61.9277 7.72308 61.9843V65.3786C7.72308 65.8658 7.80558 66.2151 7.97257 66.4267C8.13781 66.6386 8.43543 66.7454 8.86244 66.7454C9.25134 66.7454 9.71596 66.611 10.253 66.3424V61.9843C10.253 61.9312 10.2739 61.8828 10.3167 61.8417C10.3581 61.7985 10.4062 61.778 10.4597 61.778H10.9689C11.0206 61.778 11.0654 61.7985 11.1033 61.8381C11.1414 61.8795 11.162 61.9277 11.162 61.9843V67.2496ZM16.0827 67.1894C16.0827 67.3028 16.0466 67.3717 15.9724 67.3958C15.8987 67.4198 15.7161 67.4474 15.4268 67.4785C15.1377 67.5111 14.8574 67.5267 14.5853 67.5267C13.9003 67.5267 13.3615 67.3028 12.9691 66.8554C12.5784 66.4096 12.3821 65.7968 12.3821 65.0205V64.2134C12.3821 63.4336 12.5767 62.8208 12.9676 62.3735C13.3565 61.9262 13.8968 61.7022 14.5853 61.7022C14.9243 61.7022 15.2392 61.7228 15.5286 61.7624C15.8177 61.8038 15.9829 61.8399 16.0226 61.8707C16.0639 61.9036 16.0827 61.962 16.0827 62.0445V62.4181C16.0827 62.5196 16.0105 62.5695 15.8658 62.5695C15.4391 62.5232 15.0123 62.4991 14.5853 62.4991C13.7248 62.4991 13.2945 63.0705 13.2945 64.2134V65.0205C13.2945 66.1634 13.7248 66.7348 14.5853 66.7348C14.9587 66.7348 15.2633 66.7228 15.501 66.697C15.7385 66.6711 15.8676 66.6594 15.8917 66.6594C16.019 66.6594 16.0827 66.7108 16.0827 66.8158V67.1894ZM21.6301 62.3236C21.6301 62.3802 21.6095 62.4284 21.5699 62.4698C21.5285 62.5094 21.4804 62.5299 21.4237 62.5299H19.7197V67.2496C19.7197 67.3063 19.6991 67.3544 19.6595 67.3958C19.6182 67.4354 19.57 67.456 19.5131 67.456H19.0174C18.9607 67.456 18.9126 67.4354 18.8712 67.3958C18.8316 67.3544 18.811 67.3063 18.811 67.2496V62.5299H17.107C17.0501 62.5299 17.0019 62.5094 16.9608 62.4698C16.921 62.4284 16.9004 62.3802 16.9004 62.3236V61.9843C16.9004 61.9277 16.921 61.8795 16.9608 61.8381C17.0019 61.7985 17.0501 61.778 17.107 61.778H21.4237C21.4804 61.778 21.5285 61.7985 21.5699 61.8381C21.6095 61.8795 21.6301 61.9277 21.6301 61.9843V62.3236ZM26.6888 65.0103C26.6888 65.7968 26.4874 66.4131 26.083 66.8587C25.68 67.3045 25.1139 67.5267 24.384 67.5267C23.6543 67.5267 23.0899 67.3045 22.6887 66.8605C22.2895 66.4164 22.0897 65.8003 22.0897 65.0103V64.2237C22.0897 63.4474 22.286 62.8331 22.6802 62.3802C23.0726 61.9294 23.6405 61.7022 24.384 61.7022C25.1139 61.7022 25.68 61.9262 26.083 62.37C26.4874 62.8158 26.6888 63.4336 26.6888 64.2237V65.0103ZM25.7801 65.0103V64.2237C25.7801 63.074 25.3155 62.4991 24.384 62.4991C23.4633 62.4991 23.0019 63.074 23.0019 64.2237V65.0103C23.0019 66.1599 23.4633 66.7348 24.384 66.7348C24.8403 66.7348 25.1881 66.5884 25.4255 66.2943C25.663 65.9999 25.7801 65.5714 25.7801 65.0103ZM31.8625 62.3236C31.8625 62.3802 31.842 62.4284 31.8024 62.4698C31.761 62.5094 31.7128 62.5299 31.6559 62.5299H29.9521V67.2496C29.9521 67.3063 29.9316 67.3544 29.8917 67.3958C29.8503 67.4354 29.8024 67.456 29.7455 67.456H29.2498C29.1929 67.456 29.145 67.4354 29.1036 67.3958C29.064 67.3544 29.0435 67.3063 29.0435 67.2496V62.5299H27.3394C27.2825 62.5299 27.2341 62.5094 27.193 62.4698C27.1534 62.4284 27.1328 62.3802 27.1328 62.3236V61.9843C27.1328 61.9277 27.1534 61.8795 27.193 61.8381C27.2341 61.7985 27.2825 61.778 27.3394 61.778H31.6559C31.7128 61.778 31.761 61.7985 31.8024 61.8381C31.842 61.8795 31.8625 61.9277 31.8625 61.9843V62.3236ZM36.6782 67.2496C36.6782 67.3063 36.6577 67.3544 36.6145 67.3958C36.5732 67.4354 36.525 67.456 36.4716 67.456H35.9932C35.9383 67.456 35.8917 67.4354 35.852 67.3958C35.8109 67.3544 35.7901 67.3063 35.7901 67.2496V67.0222C35.2154 67.3579 34.6853 67.5267 34.1982 67.5267C33.6558 67.5267 33.2411 67.3855 32.9502 67.1049C32.6594 66.8243 32.5129 66.4096 32.5129 65.857V65.7314C32.5129 65.1564 32.704 64.7332 33.0861 64.4629C33.4668 64.1926 34.1069 64.0567 35.0035 64.0567H35.766V63.6437C35.766 63.2167 35.6835 62.9156 35.5218 62.7418C35.3583 62.5663 35.0707 62.4783 34.661 62.4783C34.2721 62.4783 33.9434 62.4888 33.6784 62.5094L33.038 62.5643C32.9106 62.5643 32.8452 62.5076 32.8452 62.394V62.036C32.8452 61.962 32.8728 61.9086 32.9262 61.8795C32.9813 61.8484 33.1774 61.8123 33.5167 61.7677C33.8554 61.7246 34.2375 61.7022 34.661 61.7022C36.0052 61.7022 36.6782 62.3494 36.6782 63.6437V67.2496ZM35.766 66.3718V64.7074H35.0035C34.4288 64.7074 34.0226 64.7763 33.7832 64.9122C33.5457 65.0481 33.4254 65.3184 33.4254 65.7211V65.8467C33.4254 66.1739 33.4958 66.4111 33.637 66.5611C33.7782 66.7108 34.0242 66.7847 34.3737 66.7847C34.8004 66.7847 35.2653 66.6471 35.766 66.3718ZM45.0725 65.7918C45.0725 66.9482 44.2017 67.5267 42.4615 67.5267C42.2825 67.5267 41.9641 67.5196 41.5062 67.5043C41.0466 67.4888 40.7868 67.456 40.7232 67.4061C40.6612 67.3544 40.6301 67.2787 40.6301 67.1791V62.055C40.6301 61.8848 40.7369 61.7832 40.9503 61.7504C41.1637 61.7193 41.7008 61.7022 42.5613 61.7022C43.4254 61.7022 44.0502 61.8311 44.4356 62.0876C44.8195 62.3459 45.0123 62.7298 45.0123 63.241V63.2959C45.0123 63.5645 44.9486 63.8087 44.8177 64.0276C44.6886 64.2463 44.5043 64.4045 44.2671 64.5007C44.8042 64.7264 45.0725 65.1326 45.0725 65.7211V65.7918ZM44.0898 63.2959V63.241C44.0898 62.9414 43.9625 62.7348 43.7092 62.6197C43.4545 62.5061 43.0535 62.4492 42.5012 62.4492C42.014 62.4492 41.6923 62.4525 41.5391 62.4595V64.1635H42.8299C43.3238 64.1635 43.6576 64.0893 43.8298 63.9413C44.0038 63.7934 44.0898 63.5783 44.0898 63.2959ZM44.1553 65.7918V65.7211C44.1553 65.4458 44.064 65.2339 43.8832 65.086C43.7007 64.938 43.3497 64.8641 42.8299 64.8641H41.5391V66.7744C41.945 66.7882 42.2429 66.795 42.4305 66.795C43.0362 66.795 43.4753 66.7195 43.7473 66.5663C44.0194 66.4131 44.1553 66.1549 44.1553 65.7918ZM53.4477 62.9534V67.2496C53.4477 67.3063 53.4271 67.3544 53.3875 67.3958C53.3461 67.4354 53.298 67.456 53.2413 67.456H52.7471C52.6887 67.456 52.6406 67.4354 52.6009 67.3958C52.5596 67.3544 52.539 67.3063 52.539 67.2496V62.9534C52.539 62.7985 52.5132 62.6937 52.4598 62.6403C52.4046 62.5869 52.3016 62.5593 52.1466 62.5593H50.1948C50.0399 62.5593 49.9363 62.5869 49.8814 62.6403C49.8283 62.6937 49.8024 62.7985 49.8024 62.9534V67.2496C49.8024 67.3063 49.7816 67.3544 49.7403 67.3958C49.7009 67.4354 49.6542 67.456 49.5993 67.456H49.0999C49.0434 67.456 48.9951 67.4354 48.9537 67.3958C48.9143 67.3544 48.8935 67.3063 48.8935 67.2496V62.9534C48.8935 62.5939 48.964 62.3271 49.1036 62.1531C49.2428 61.9811 49.4013 61.8743 49.5768 61.8364C49.754 61.7968 49.9589 61.778 50.1948 61.778H52.1466C52.3858 61.778 52.5924 61.7968 52.7697 61.8364C52.9452 61.8743 53.1034 61.9811 53.2413 62.1531C53.379 62.3271 53.4477 62.5939 53.4477 62.9534ZM59.2257 65C59.2257 65.8279 59.0347 66.4545 58.6543 66.883C58.2722 67.3115 57.711 67.5267 56.9728 67.5267C56.5992 67.5267 56.1965 67.4888 55.7628 67.4163V69.2821C55.7628 69.3355 55.7437 69.3821 55.7058 69.4197C55.6697 69.4596 55.6234 69.4784 55.5699 69.4784H55.0416C54.9158 69.4784 54.8538 69.413 54.8538 69.2821V62.1771C54.8538 62.0894 54.8814 62.0275 54.9348 61.9896C54.9882 61.9535 55.236 61.8966 55.6768 61.8193C56.1173 61.7419 56.5493 61.7022 56.9728 61.7022C57.7025 61.7022 58.2601 61.9224 58.6458 62.3632C59.0329 62.8037 59.2257 63.4336 59.2257 64.2548V65ZM58.3135 65V64.2548C58.3135 63.6349 58.205 63.1841 57.9863 62.8985C57.7679 62.6127 57.4289 62.4698 56.9728 62.4698C56.5681 62.4698 56.1655 62.5026 55.7628 62.5695V66.6594C56.1622 66.7298 56.5649 66.7659 56.9728 66.7659C57.4322 66.7659 57.7712 66.6248 57.9883 66.3442C58.205 66.0636 58.3135 65.616 58.3135 65ZM64.8541 65.0103C64.8541 65.7968 64.6525 66.4131 64.248 66.8587C63.8454 67.3045 63.2792 67.5267 62.5493 67.5267C61.8196 67.5267 61.255 67.3045 60.854 66.8605C60.4546 66.4164 60.2548 65.8003 60.2548 65.0103V64.2237C60.2548 63.4474 60.4511 62.8331 60.8455 62.3802C61.2379 61.9294 61.8056 61.7022 62.5493 61.7022C63.2792 61.7022 63.8454 61.9262 64.248 62.37C64.6525 62.8158 64.8541 63.4336 64.8541 64.2237V65.0103ZM63.9451 65.0103V64.2237C63.9451 63.074 63.4805 62.4991 62.5493 62.4991C61.6283 62.4991 61.1672 63.074 61.1672 64.2237V65.0103C61.1672 66.1599 61.6283 66.7348 62.5493 66.7348C63.0054 66.7348 63.3531 66.5884 63.5906 66.2943C63.828 65.9999 63.9451 65.5714 63.9451 65.0103ZM71.2224 67.2496C71.2224 67.3063 71.2016 67.3544 71.1602 67.3958C71.1173 67.4354 71.0692 67.456 71.016 67.456H70.5371C70.4839 67.456 70.4358 67.4354 70.3927 67.3958C70.3515 67.3544 70.3307 67.3063 70.3307 67.2496V62.9018L69.5494 64.339C69.2671 64.85 69.1104 65.1273 69.0793 65.1687C69.0502 65.2116 69.0038 65.2462 68.9416 65.2753C68.8782 65.3046 68.799 65.3184 68.7007 65.3184H68.298C68.2208 65.3184 68.1551 65.3096 68.1019 65.2926C68.0485 65.2753 68.0021 65.2495 67.966 65.2151C67.9279 65.179 67.8524 65.0601 67.7386 64.8588L66.6647 62.9018V67.2496C66.6647 67.3063 66.6441 67.3544 66.6045 67.3958C66.5631 67.4354 66.515 67.456 66.4581 67.456H65.9829C65.9262 67.456 65.8781 67.4354 65.8367 67.3958C65.7974 67.3544 65.7766 67.3063 65.7766 67.2496V61.9843C65.7766 61.9277 65.7974 61.8795 65.8367 61.8381C65.8781 61.7985 65.9262 61.778 65.9829 61.778H66.6544C66.7747 61.778 66.8628 61.7985 66.9159 61.8381C66.9402 61.859 67.0761 62.0947 67.3256 62.5437L67.9402 63.6593C68.2722 64.2668 68.4459 64.5835 68.4562 64.604C68.4685 64.6264 68.482 64.6366 68.4943 64.6366C68.5079 64.6366 68.5287 64.6161 68.5562 64.5715L70.0123 61.9294C70.0639 61.8279 70.1725 61.778 70.341 61.778H71.016C71.0692 61.778 71.1173 61.7985 71.1602 61.8381C71.2016 61.8795 71.2224 61.9277 71.2224 61.9843V67.2496ZM78.8333 67.2496C78.8333 67.3063 78.8128 67.3544 78.7731 67.3958C78.7318 67.4354 78.6836 67.456 78.6267 67.456H78.1312C78.0743 67.456 78.0259 67.4354 77.9866 67.3958C77.9452 67.3544 77.9246 67.3063 77.9246 67.2496V61.9843C77.9246 61.9277 77.9452 61.8795 77.9866 61.8381C78.0259 61.7985 78.0743 61.778 78.1312 61.778H78.6267C78.6836 61.778 78.7318 61.7985 78.7731 61.8381C78.8128 61.8795 78.8333 61.9277 78.8333 61.9843V67.2496ZM77.119 65.7918C77.119 66.9482 76.2482 67.5267 74.5063 67.5267C74.1362 67.5267 73.7576 67.5179 73.3722 67.5008C72.9848 67.4853 72.7644 67.4507 72.7095 67.3975C72.6526 67.3459 72.625 67.2737 72.625 67.1791V61.9843C72.625 61.9277 72.6458 61.8795 72.6852 61.8381C72.7265 61.7985 72.7749 61.778 72.8316 61.778H73.3308C73.3857 61.778 73.4324 61.7985 73.4717 61.8381C73.5131 61.8795 73.5339 61.9277 73.5339 61.9843V63.9965C73.9263 63.9827 74.2515 63.976 74.5063 63.976C76.2482 63.976 77.119 64.5541 77.119 65.7108V65.7918ZM76.1998 65.7918V65.7108C76.1998 65.3853 76.0621 65.1446 75.7853 64.9897C75.508 64.8365 75.071 64.759 74.4752 64.759L73.5339 64.7934V66.7143L74.4752 66.7454C75.071 66.7454 75.508 66.6679 75.7853 66.5127C76.0621 66.358 76.1998 66.1188 76.1998 65.7918ZM87.3033 66.2805C87.3033 66.6401 87.2346 66.9071 87.0949 67.0776C86.954 67.2496 86.7973 67.3544 86.62 67.3958C86.4445 67.4354 86.2379 67.456 86.0019 67.456H81.6406C81.4049 67.456 81.2 67.4354 81.0228 67.3958C80.8472 67.3544 80.6888 67.2496 80.5494 67.0776C80.41 66.9071 80.3395 66.6401 80.3395 66.2805V61.9843C80.3395 61.9277 80.3601 61.8795 80.3997 61.8381C80.441 61.7985 80.4892 61.778 80.5459 61.778H81.0451C81.1 61.778 81.1466 61.7985 81.1862 61.8381C81.2276 61.8795 81.2482 61.9277 81.2482 61.9843V66.2805C81.2482 66.4355 81.274 66.5385 81.3274 66.5922C81.3823 66.6438 81.4859 66.6696 81.6406 66.6696H83.3652V61.9843C83.3652 61.9277 83.3857 61.8795 83.4256 61.8381C83.4667 61.7985 83.5151 61.778 83.5718 61.778H84.071C84.1244 61.778 84.1726 61.7985 84.2157 61.8381C84.2568 61.8795 84.2774 61.9277 84.2774 61.9843V66.6696H86.0019C86.1569 66.6696 86.2602 66.6438 86.3121 66.5922C86.3653 66.5385 86.3911 66.4355 86.3911 66.2805V61.9843C86.3911 61.9277 86.4117 61.8795 86.453 61.8381C86.4962 61.7985 86.5443 61.778 86.5977 61.778H87.0969C87.1536 61.778 87.2035 61.7985 87.2431 61.8381C87.2825 61.8795 87.3033 61.9277 87.3033 61.9843V66.2805ZM92.2396 67.2995L90.9884 62.7057C90.9556 62.5816 90.8901 62.5197 90.7921 62.5197C90.6888 62.5197 90.6201 62.5816 90.5857 62.7057L89.3343 67.2995C89.312 67.4043 89.25 67.456 89.1485 67.456H88.5392C88.4238 67.456 88.3672 67.401 88.3672 67.289C88.3672 67.2667 88.3704 67.2426 88.3775 67.2185L89.7387 62.4888C89.8937 61.9655 90.245 61.7022 90.7921 61.7022C91.3394 61.7022 91.6887 61.962 91.8367 62.4783L93.1879 67.2185C93.1949 67.2323 93.1982 67.2564 93.1982 67.289C93.1982 67.401 93.138 67.456 93.0209 67.456H92.4119C92.3241 67.456 92.2672 67.4043 92.2396 67.2995ZM98.6442 64.678C98.6442 64.8295 98.5788 64.9052 98.4479 64.9052H94.9884V65.0516C94.9884 65.6316 95.102 66.0583 95.3257 66.3286C95.5511 66.5987 95.9162 66.7348 96.4204 66.7348C96.9317 66.7348 97.3705 66.7143 97.7388 66.6747C98.1071 66.6335 98.3 66.6142 98.3173 66.6142C98.4238 66.6142 98.4772 66.6644 98.4772 66.7659V67.1134C98.4772 67.2065 98.4514 67.2737 98.398 67.3098C98.3431 67.3459 98.1124 67.3925 97.7045 67.4457C97.2948 67.4991 96.868 67.5267 96.4204 67.5267C95.6752 67.5267 95.0968 67.3168 94.6888 66.8986C94.2809 66.4803 94.076 65.864 94.076 65.0516V64.1169C94.076 63.3717 94.2759 62.7832 94.6753 62.3509C95.0762 61.9191 95.6409 61.7022 96.3705 61.7022C97.0969 61.7022 97.6561 61.9156 98.0522 62.3406C98.4464 62.7659 98.6442 63.3579 98.6442 64.1169V64.678ZM97.7218 64.2134V64.1169C97.7218 63.5592 97.6149 63.1513 97.4013 62.89C97.1879 62.63 96.8439 62.4991 96.3705 62.4991C95.4496 62.4991 94.9884 63.0394 94.9884 64.1169V64.2134H97.7218ZM104.434 67.2496C104.434 67.3063 104.414 67.3544 104.374 67.3958C104.333 67.4354 104.285 67.456 104.228 67.456H103.734C103.675 67.456 103.627 67.4354 103.588 67.3958C103.546 67.3544 103.526 67.3063 103.526 67.2496V64.9451H100.789V67.2496C100.789 67.3063 100.768 67.3544 100.727 67.3958C100.687 67.4354 100.641 67.456 100.586 67.456H100.086C100.03 67.456 99.9817 67.4354 99.9403 67.3958C99.9007 67.3544 99.8799 67.3063 99.8799 67.2496V61.9843C99.8799 61.9277 99.9007 61.8795 99.9403 61.8381C99.9817 61.7985 100.03 61.778 100.086 61.778H100.586C100.641 61.778 100.687 61.7985 100.727 61.8381C100.768 61.8795 100.789 61.9277 100.789 61.9843V64.1738H103.526V61.9843C103.526 61.9277 103.546 61.8795 103.588 61.8381C103.627 61.7985 103.675 61.778 103.734 61.778H104.228C104.285 61.778 104.333 61.7985 104.374 61.8381C104.414 61.8795 104.434 61.9277 104.434 61.9843V67.2496ZM110.395 67.2496C110.395 67.3063 110.374 67.3544 110.334 67.3958C110.293 67.4354 110.245 67.456 110.188 67.456H109.694C109.636 67.456 109.588 67.4354 109.548 67.3958C109.507 67.3544 109.486 67.3063 109.486 67.2496V64.9451H106.749V67.2496C106.749 67.3063 106.729 67.3544 106.687 67.3958C106.648 67.4354 106.601 67.456 106.546 67.456H106.047C105.99 67.456 105.942 67.4354 105.901 67.3958C105.861 67.3544 105.84 67.3063 105.84 67.2496V61.9843C105.84 61.9277 105.861 61.8795 105.901 61.8381C105.942 61.7985 105.99 61.778 106.047 61.778H106.546C106.601 61.778 106.648 61.7985 106.687 61.8381C106.729 61.8795 106.749 61.9277 106.749 61.9843V64.1738H109.486V61.9843C109.486 61.9277 109.507 61.8795 109.548 61.8381C109.588 61.7985 109.636 61.778 109.694 61.778H110.188C110.245 61.778 110.293 61.7985 110.334 61.8381C110.374 61.8795 110.395 61.9277 110.395 61.9843V67.2496ZM118.009 67.2496C118.009 67.3063 117.989 67.3544 117.949 67.3958C117.908 67.4354 117.859 67.456 117.802 67.456H117.307C117.25 67.456 117.202 67.4354 117.162 67.3958C117.121 67.3544 117.1 67.3063 117.1 67.2496V61.9843C117.1 61.9277 117.121 61.8795 117.162 61.8381C117.202 61.7985 117.25 61.778 117.307 61.778H117.802C117.859 61.778 117.908 61.7985 117.949 61.8381C117.989 61.8795 118.009 61.9277 118.009 61.9843V67.2496ZM116.295 65.7918C116.295 66.9482 115.424 67.5267 113.682 67.5267C113.312 67.5267 112.933 67.5179 112.548 67.5008C112.161 67.4853 111.94 67.4507 111.885 67.3975C111.828 67.3459 111.801 67.2737 111.801 67.1791V61.9843C111.801 61.9277 111.822 61.8795 111.861 61.8381C111.902 61.7985 111.951 61.778 112.007 61.778H112.507C112.562 61.778 112.608 61.7985 112.648 61.8381C112.689 61.8795 112.71 61.9277 112.71 61.9843V63.9965C113.102 63.9827 113.427 63.976 113.682 63.976C115.424 63.976 116.295 64.5541 116.295 65.7108V65.7918ZM115.376 65.7918V65.7108C115.376 65.3853 115.238 65.1446 114.961 64.9897C114.684 64.8365 114.247 64.759 113.651 64.759L112.71 64.7934V66.7143L113.651 66.7454C114.247 66.7454 114.684 66.6679 114.961 66.5127C115.238 66.358 115.376 66.1188 115.376 65.7918ZM124.099 67.2185C124.13 67.2632 124.145 67.3045 124.145 67.3441C124.145 67.4184 124.099 67.456 124.009 67.456H123.297C123.254 67.456 123.223 67.4492 123.204 67.4354C123.187 67.4216 123.02 67.1842 122.708 66.7195L121.674 65.2166L120.383 67.0826C120.245 67.2839 120.168 67.3975 120.15 67.4198C120.135 67.4442 120.09 67.456 120.02 67.456H119.4C119.319 67.456 119.279 67.4216 119.279 67.3544C119.279 67.3148 119.292 67.2754 119.319 67.234L121.19 64.5662L119.99 62.8313C119.607 62.2837 119.41 61.9981 119.4 61.9723C119.389 61.9467 119.384 61.9224 119.384 61.8983C119.384 61.8193 119.434 61.778 119.536 61.778H120.207C120.261 61.778 120.3 61.79 120.327 61.8141C120.355 61.8364 120.515 62.0688 120.811 62.5094L121.724 63.8604C122.608 62.5628 123.068 61.8913 123.101 61.8467C123.135 61.8003 123.188 61.778 123.262 61.778H123.863C123.952 61.778 123.999 61.8176 123.999 61.8951C123.999 61.9414 123.983 61.9843 123.952 62.0257L122.214 64.5007L124.099 67.2185ZM133.159 67.2496C133.159 67.3063 133.138 67.3544 133.097 67.3958C133.054 67.4354 133.006 67.456 132.952 67.456H132.474C132.421 67.456 132.372 67.4354 132.329 67.3958C132.288 67.3544 132.267 67.3063 132.267 67.2496V62.9018L131.486 64.339C131.204 64.85 131.047 65.1273 131.016 65.1687C130.987 65.2116 130.941 65.2462 130.878 65.2753C130.815 65.3046 130.736 65.3184 130.637 65.3184H130.235C130.157 65.3184 130.092 65.3096 130.039 65.2926C129.985 65.2753 129.939 65.2495 129.902 65.2151C129.865 65.179 129.789 65.0601 129.675 64.8588L128.601 62.9018V67.2496C128.601 67.3063 128.581 67.3544 128.541 67.3958C128.5 67.4354 128.452 67.456 128.395 67.456H127.92C127.863 67.456 127.815 67.4354 127.773 67.3958C127.734 67.3544 127.713 67.3063 127.713 67.2496V61.9843C127.713 61.9277 127.734 61.8795 127.773 61.8381C127.815 61.7985 127.863 61.778 127.92 61.778H128.591C128.711 61.778 128.799 61.7985 128.853 61.8381C128.877 61.859 129.013 62.0947 129.262 62.5437L129.877 63.6593C130.209 64.2668 130.383 64.5835 130.393 64.604C130.405 64.6264 130.419 64.6366 130.431 64.6366C130.445 64.6366 130.465 64.6161 130.493 64.5715L131.949 61.9294C132.001 61.8279 132.109 61.778 132.278 61.778H132.952C133.006 61.778 133.054 61.7985 133.097 61.8381C133.138 61.8795 133.159 61.9277 133.159 61.9843V67.2496ZM138.52 67.2496C138.52 67.3063 138.5 67.3544 138.457 67.3958C138.415 67.4354 138.367 67.456 138.314 67.456H137.835C137.78 67.456 137.734 67.4354 137.694 67.3958C137.653 67.3544 137.632 67.3063 137.632 67.2496V67.0222C137.057 67.3579 136.527 67.5267 136.04 67.5267C135.498 67.5267 135.083 67.3855 134.792 67.1049C134.501 66.8243 134.355 66.4096 134.355 65.857V65.7314C134.355 65.1564 134.546 64.7332 134.928 64.4629C135.309 64.1926 135.949 64.0567 136.846 64.0567H137.608V63.6437C137.608 63.2167 137.526 62.9156 137.364 62.7418C137.2 62.5663 136.913 62.4783 136.503 62.4783C136.114 62.4783 135.786 62.4888 135.52 62.5094L134.88 62.5643C134.753 62.5643 134.687 62.5076 134.687 62.394V62.036C134.687 61.962 134.715 61.9086 134.768 61.8795C134.823 61.8484 135.02 61.8123 135.359 61.7677C135.698 61.7246 136.08 61.7022 136.503 61.7022C137.847 61.7022 138.52 62.3494 138.52 63.6437V67.2496ZM137.608 66.3718V64.7074H136.846C136.271 64.7074 135.865 64.7763 135.625 64.9122C135.388 65.0481 135.267 65.3184 135.267 65.7211V65.8467C135.267 66.1739 135.338 66.4111 135.479 66.5611C135.62 66.7108 135.866 66.7847 136.216 66.7847C136.643 66.7847 137.107 66.6471 137.608 66.3718ZM143.436 67.1894C143.436 67.3028 143.4 67.3717 143.326 67.3958C143.252 67.4198 143.07 67.4474 142.78 67.4785C142.491 67.5111 142.211 67.5267 141.939 67.5267C141.254 67.5267 140.715 67.3028 140.322 66.8554C139.932 66.4096 139.735 65.7968 139.735 65.0205V64.2134C139.735 63.4336 139.93 62.8208 140.321 62.3735C140.71 61.9262 141.25 61.7022 141.939 61.7022C142.278 61.7022 142.593 61.7228 142.882 61.7624C143.171 61.8038 143.336 61.8399 143.376 61.8707C143.417 61.9036 143.436 61.962 143.436 62.0445V62.4181C143.436 62.5196 143.364 62.5695 143.219 62.5695C142.792 62.5232 142.366 62.4991 141.939 62.4991C141.078 62.4991 140.648 63.0705 140.648 64.2134V65.0205C140.648 66.1634 141.078 66.7348 141.939 66.7348C142.312 66.7348 142.617 66.7228 142.854 66.697C143.092 66.6711 143.221 66.6594 143.245 66.6594C143.372 66.6594 143.436 66.7108 143.436 66.8158V67.1894ZM151.555 66.2805C151.555 66.6401 151.486 66.9071 151.347 67.0776C151.206 67.2496 151.049 67.3544 150.872 67.3958C150.696 67.4354 150.49 67.456 150.254 67.456H145.892C145.656 67.456 145.452 67.4354 145.274 67.3958C145.099 67.3544 144.941 67.2496 144.801 67.0776C144.661 66.9071 144.591 66.6401 144.591 66.2805V61.9843C144.591 61.9277 144.612 61.8795 144.651 61.8381C144.693 61.7985 144.741 61.778 144.798 61.778H145.297C145.352 61.778 145.398 61.7985 145.438 61.8381C145.479 61.8795 145.5 61.9277 145.5 61.9843V66.2805C145.5 66.4355 145.526 66.5385 145.579 66.5922C145.634 66.6438 145.737 66.6696 145.892 66.6696H147.617V61.9843C147.617 61.9277 147.637 61.8795 147.677 61.8381C147.718 61.7985 147.767 61.778 147.824 61.778H148.323C148.376 61.778 148.424 61.7985 148.467 61.8381C148.509 61.8795 148.529 61.9277 148.529 61.9843V66.6696H150.254C150.409 66.6696 150.512 66.6438 150.564 66.5922C150.617 66.5385 150.643 66.4355 150.643 66.2805V61.9843C150.643 61.9277 150.663 61.8795 150.705 61.8381C150.748 61.7985 150.796 61.778 150.849 61.778H151.348C151.405 61.778 151.455 61.7985 151.495 61.8381C151.534 61.8795 151.555 61.9277 151.555 61.9843V66.2805ZM157.348 62.3236C157.348 62.3802 157.328 62.4284 157.288 62.4698C157.247 62.5094 157.199 62.5299 157.142 62.5299H155.438V67.2496C155.438 67.3063 155.417 67.3544 155.378 67.3958C155.336 67.4354 155.288 67.456 155.231 67.456H154.736C154.679 67.456 154.631 67.4354 154.589 67.3958C154.55 67.3544 154.529 67.3063 154.529 67.2496V62.5299H152.825C152.768 62.5299 152.72 62.5094 152.679 62.4698C152.639 62.4284 152.619 62.3802 152.619 62.3236V61.9843C152.619 61.9277 152.639 61.8795 152.679 61.8381C152.72 61.7985 152.768 61.778 152.825 61.778H157.142C157.199 61.778 157.247 61.7985 157.288 61.8381C157.328 61.8795 157.348 61.9277 157.348 61.9843V62.3236ZM162.164 67.2496C162.164 67.3063 162.144 67.3544 162.1 67.3958C162.059 67.4354 162.011 67.456 161.957 67.456H161.479C161.424 67.456 161.378 67.4354 161.338 67.3958C161.297 67.3544 161.276 67.3063 161.276 67.2496V67.0222C160.701 67.3579 160.171 67.5267 159.684 67.5267C159.142 67.5267 158.727 67.3855 158.436 67.1049C158.145 66.8243 157.999 66.4096 157.999 65.857V65.7314C157.999 65.1564 158.19 64.7332 158.572 64.4629C158.953 64.1926 159.593 64.0567 160.489 64.0567H161.252V63.6437C161.252 63.2167 161.169 62.9156 161.008 62.7418C160.844 62.5663 160.557 62.4783 160.147 62.4783C159.758 62.4783 159.429 62.4888 159.164 62.5094L158.524 62.5643C158.397 62.5643 158.331 62.5076 158.331 62.394V62.036C158.331 61.962 158.359 61.9086 158.412 61.8795C158.467 61.8484 158.663 61.8123 159.003 61.7677C159.341 61.7246 159.723 61.7022 160.147 61.7022C161.491 61.7022 162.164 62.3494 162.164 63.6437V67.2496ZM161.252 66.3718V64.7074H160.489C159.915 64.7074 159.509 64.7763 159.269 64.9122C159.032 65.0481 158.911 65.3184 158.911 65.7211V65.8467C158.911 66.1739 158.982 66.4111 159.123 66.5611C159.264 66.7108 159.51 66.7847 159.86 66.7847C160.286 66.7847 160.751 66.6471 161.252 66.3718ZM167.978 64.9451C167.978 65.766 167.784 66.4008 167.399 66.8502C167.011 67.3013 166.433 67.5267 165.663 67.5267C164.916 67.5267 164.35 67.308 163.961 66.869C163.574 66.4302 163.379 65.788 163.379 64.9451V64.4717C163.379 63.5903 163.417 62.9106 163.493 62.4319C163.569 61.9517 163.762 61.5438 164.073 61.208C164.383 60.8726 164.875 60.6386 165.548 60.5077C166.113 60.3959 166.452 60.3237 166.565 60.2908C166.68 60.2565 166.773 60.1996 166.846 60.1188C166.918 60.0378 166.965 59.9416 166.985 59.826C167.004 59.7367 167.058 59.6901 167.14 59.6901H167.72C167.801 59.6901 167.843 59.7279 167.843 59.8019C167.843 59.9466 167.806 60.105 167.734 60.2788C167.662 60.4511 167.526 60.6075 167.328 60.7504C167.13 60.8914 166.851 60.9982 166.495 61.0721L165.724 61.2391C165.216 61.3457 164.879 61.4871 164.71 61.6591C164.543 61.8331 164.447 62.0395 164.422 62.2822C164.756 62.0137 165.173 61.8795 165.674 61.8795C166.417 61.8795 166.987 62.1014 167.383 62.5472C167.78 62.9931 167.978 63.6334 167.978 64.4717V64.9451ZM167.056 64.9451V64.4717C167.056 63.2598 166.594 62.6558 165.674 62.6558C164.753 62.6558 164.292 63.2598 164.292 64.4717V64.9451C164.292 65.5438 164.4 65.9929 164.615 66.2943C164.83 66.5954 165.18 66.7454 165.663 66.7454C166.591 66.7454 167.056 66.1446 167.056 64.9451Z" fill="#6E6E6E"/>
<path d="M173.152 67.2496C173.152 67.3063 173.132 67.3544 173.088 67.3958C173.047 67.4354 172.999 67.456 172.945 67.456H172.467C172.412 67.456 172.366 67.4354 172.326 67.3958C172.285 67.3544 172.264 67.3063 172.264 67.2496V67.0222C171.689 67.3579 171.159 67.5267 170.672 67.5267C170.13 67.5267 169.715 67.3855 169.424 67.1049C169.133 66.8244 168.987 66.4096 168.987 65.857V65.7314C168.987 65.1564 169.178 64.7332 169.56 64.4629C169.94 64.1926 170.581 64.0567 171.477 64.0567H172.24V63.6437C172.24 63.2167 172.157 62.9156 171.995 62.7418C171.832 62.5663 171.545 62.4783 171.135 62.4783C170.746 62.4783 170.417 62.4888 170.152 62.5094L169.512 62.5643C169.385 62.5643 169.319 62.5076 169.319 62.394V62.036C169.319 61.962 169.347 61.9086 169.4 61.8795C169.455 61.8484 169.651 61.8123 169.99 61.7677C170.329 61.7246 170.711 61.7022 171.135 61.7022C172.479 61.7022 173.152 62.3494 173.152 63.6437V67.2496ZM172.24 66.3718V64.7074H171.477C170.903 64.7074 170.496 64.7763 170.257 64.9122C170.02 65.0481 169.899 65.3184 169.899 65.7211V65.8467C169.899 66.1739 169.97 66.4111 170.111 66.5611C170.252 66.7108 170.498 66.7847 170.847 66.7847C171.274 66.7847 171.739 66.6471 172.24 66.3718ZM179.137 67.2185C179.168 67.2632 179.183 67.3045 179.183 67.3441C179.183 67.4184 179.137 67.456 179.047 67.456H178.335C178.292 67.456 178.261 67.4492 178.242 67.4354C178.225 67.4216 178.058 67.1842 177.746 66.7196L176.712 65.2166L175.421 67.0826C175.283 67.284 175.206 67.3975 175.188 67.4199C175.173 67.4442 175.128 67.456 175.057 67.456H174.438C174.357 67.456 174.317 67.4216 174.317 67.3544C174.317 67.3148 174.33 67.2754 174.357 67.2341L176.228 64.5662L175.028 62.8313C174.645 62.2837 174.448 61.9981 174.438 61.9723C174.428 61.9467 174.422 61.9224 174.422 61.8983C174.422 61.8193 174.472 61.778 174.574 61.778H175.245C175.299 61.778 175.338 61.79 175.366 61.8141C175.393 61.8364 175.553 62.0688 175.849 62.5094L176.762 63.8604C177.646 62.5628 178.106 61.8913 178.139 61.8467C178.173 61.8003 178.226 61.778 178.3 61.778H178.901C178.99 61.778 179.037 61.8176 179.037 61.8951C179.037 61.9414 179.021 61.9843 178.99 62.0257L177.252 64.5007L179.137 67.2185Z" fill="#6E6E6E"/>
<path d="M1 27.8141V53.8055H10.928C19.5545 53.8055 23.8306 47.2238 23.7561 40.6795C23.719 34.2841 19.4058 27.8141 10.928 27.8141H1ZM7.80457 47.6701V33.9123H10.8536C14.8694 33.9123 16.9515 37.3331 16.9515 40.754C16.9515 44.2122 14.981 47.6701 10.8536 47.6701H7.80457ZM33.8702 38.2258C33.5726 34.7676 28.7386 35.1765 26.2475 35.7715V39.2295C27.772 39.2295 27.8464 39.8987 27.8464 41.2745V53.8055H34.056V44.7824C34.056 42.0553 35.8781 40.7169 37.9976 40.6053C39.0013 40.5682 40.0798 40.7913 41.0837 41.4977L42.348 36.3663C41.344 35.6226 40.0427 35.2881 38.704 35.2881C36.6589 35.3252 34.5768 36.2549 33.8702 38.2258ZM45.6943 54.4376C47.7767 54.4376 49.3757 53.1734 49.3757 51.0912C49.3757 49.0086 47.7767 47.6701 45.6943 47.6701C43.6493 47.6701 42.0132 49.0086 42.0132 51.0912C42.0132 53.1734 43.6493 54.4376 45.6943 54.4376ZM52.6478 45.8109C52.5362 51.6489 57.8163 54.3634 63.3193 54.3634C68.6367 54.3634 73.9539 51.5373 73.9539 46.0712C73.9539 39.75 69.1202 38.4858 63.5798 37.9652C61.0885 37.7421 59.6011 37.2958 59.6011 35.5484C59.6011 33.5776 61.609 33.1686 63.1338 33.1686C64.9554 33.1686 66.6288 33.9123 66.6659 35.6971H73.0244C73.136 30.0451 68.0417 27.1819 63.0219 27.1819C57.7047 27.1819 52.9081 30.0451 52.9081 35.6971C52.9081 41.1258 57.6676 43.0222 62.4272 43.3195C64.3233 43.4314 67.2238 43.5427 67.2238 46.0341C67.2238 47.5957 65.1785 48.4883 63.2451 48.4883C61.1629 48.4883 59.1177 47.5957 59.1177 45.8109H52.6478ZM87.0425 35.4739C80.9443 35.3623 76.6313 38.4113 76.5195 44.584C76.4453 49.7525 79.0108 53.9915 84.5885 54.0657C86.708 54.1029 88.7902 53.0618 89.7941 51.0912V51.3141C89.7941 54.6979 94.1445 54.0286 96.4127 53.5823V50.1615C94.8139 50.1615 94.8884 49.5294 94.8884 48.0791V37.11C92.3971 36.1063 89.7199 35.511 87.0425 35.4739ZM88.7528 44.6582C88.7528 46.8893 87.8978 48.5254 86.0014 48.5254C83.9191 48.5625 82.8038 47.1125 82.8409 44.7327C82.878 41.7579 84.3283 40.4937 86.5591 40.4937C87.1912 40.4937 88.0094 40.5682 88.7528 40.754V44.6582ZM111.286 35.8831V45.9225C111.286 47.8933 109.91 49.1204 108.423 49.1204C107.159 49.1204 106.08 48.1907 106.08 46.0341V35.8831H99.6848V46.0341C99.6848 50.5333 100.949 54.0286 106.304 54.0286C108.349 54.0286 110.505 53.0247 111.435 51.1281C111.435 55.0697 116.678 54.2889 119.095 53.731V50.2731C117.645 50.2731 117.608 49.7152 117.608 48.5254V35.8831H111.286ZM128.279 26.8472H122.479V52.6899C124.858 53.6939 127.573 54.2144 130.25 54.2889C135.716 54.4376 140.624 51.9091 140.736 44.9556C140.847 38.4487 136.757 35.6597 133.187 35.6597C130.919 35.6597 129.58 36.255 128.279 38.1513V26.8472ZM128.651 44.993C128.651 43.3569 129.32 40.9027 131.403 40.9027C133.671 40.9027 134.452 43.0595 134.377 44.993C134.303 48.0049 132.964 49.1575 130.882 49.1575C130.176 49.1575 129.432 49.0086 128.651 48.823V44.993ZM152.3 35.3623C147.689 35.511 143.041 38.746 143.227 45.2161C143.413 51.6115 147.8 54.4376 153.973 54.1402C156.353 54.0286 158.435 53.8055 160.48 52.6155L160.22 47.8933C158.956 48.5625 156.501 49.1946 154.382 49.3065C151.854 49.4178 149.734 48.6741 149.325 46.2943C150.775 47.0009 152.56 47.3356 154.345 47.2238C157.617 47.038 160.815 45.3648 160.926 41.6466C161.038 36.8497 156.464 35.2136 152.3 35.3623ZM149.585 42.799C150.032 40.9771 151.221 40.345 152.411 40.2334C153.378 40.2334 154.828 40.4937 154.865 41.7579C154.865 42.7619 153.973 43.3569 153.081 43.4314C151.891 43.5056 150.478 43.2082 149.585 42.799ZM170.929 38.2258C170.631 34.7676 165.797 35.1765 163.306 35.7715V39.2295C164.83 39.2295 164.905 39.8987 164.905 41.2745V53.8055H171.115V44.7824C171.115 42.0553 172.937 40.7169 175.056 40.6053C176.06 40.5682 177.138 40.7913 178.142 41.4977L179.407 36.3663C178.403 35.6226 177.101 35.2881 175.762 35.2881C173.718 35.3252 171.635 36.2549 170.929 38.2258Z" fill="#0085CD"/>
<path d="M1.09127 74.6891C58.7348 74.6891 115.095 74.6891 172.739 74.6891L172.384 76.1294C114.933 76.3861 58.1526 75.7643 1 79.0001L1.09127 74.6891Z" fill="#0085CD" stroke="#0085CD" stroke-width="0.0762" stroke-miterlimit="22.9256"/>
<path d="M31.8232 27.5616C31.7716 25.8906 30.2293 17.1218 29.1747 15.2951C24.9314 5.93528 33.5446 -1.08166 43.44 0.137933C46.7031 0.539868 47.3578 1.55135 48.8938 0.763778C49.2203 1.06918 49.2649 1.47813 49.2669 1.8901C49.9336 1.87957 50.6681 1.63485 51.5848 1.02906C53.3715 3.76187 51.9574 5.07148 51.0407 5.91698C51.8345 7.15162 52.2144 8.67185 52.0898 10.5396C52.0863 10.5913 52.0933 10.6359 52.1121 10.684L52.6301 11.9987C52.6873 12.1441 52.668 12.2963 52.5759 12.4227L51.7142 13.6082C51.6101 13.7513 51.5991 13.9306 51.6853 14.0853C51.9699 14.5963 53.88 17.8376 54.0922 18.4988C54.1047 18.538 54.111 18.5728 54.113 18.6142C54.1591 19.6186 53.1509 19.8772 52.1334 19.6492C52.1755 20.4155 52.1635 21.1336 52.0775 21.786C52.0672 21.864 52.0213 21.926 51.9498 21.9588L51.7761 22.0393C51.6683 22.0889 51.6186 22.2138 51.6625 22.3241L51.8292 22.7406C51.8581 22.8128 51.849 22.8888 51.8039 22.9522L50.9707 24.1229C51.2686 24.7603 51.5667 25.3977 51.8646 26.0351C51.7455 27.5104 50.2548 27.871 49.4592 27.9766C47.2512 28.2697 45.4196 27.3778 45.2777 28.8747C45.2493 29.1738 45.4326 31.2953 45.7375 33.1157C44.797 30.6407 43.7609 27.7845 43.7825 27.5533C43.9039 26.2723 46.3626 26.675 48.2524 26.4242C48.9332 26.334 50.209 26.0253 50.3108 24.7628C50.056 24.2172 49.801 23.6719 49.546 23.1262L50.2589 22.1243C50.2975 22.0699 50.3055 22.0052 50.2804 21.9433L50.138 21.5867C50.1001 21.4927 50.143 21.3856 50.235 21.343L50.384 21.2743C50.4452 21.2462 50.4843 21.193 50.4928 21.1263C50.5668 20.5679 50.577 19.9534 50.5407 19.2977C51.4118 19.4925 52.2746 19.2716 52.2349 18.4118C52.2334 18.3765 52.2279 18.3466 52.2171 18.3133C52.0356 17.7474 50.4008 14.9732 50.1573 14.5359C50.0836 14.4038 50.0931 14.2501 50.1821 14.1275L50.9195 13.1132C50.9983 13.0049 51.0151 12.8748 50.9659 12.7504L50.5229 11.6253C50.5066 11.5842 50.5006 11.5458 50.5036 11.5017C50.6101 9.90324 50.2852 8.60215 49.6059 7.54578C50.3902 6.82215 51.6006 5.70134 50.0716 3.36245C49.287 3.88098 48.6584 4.09035 48.0877 4.09937C48.0862 3.74683 48.0478 3.3968 47.7685 3.13553C46.4539 3.80952 45.8935 2.94396 43.1012 2.59994C34.6325 1.55611 27.2613 7.56133 30.8927 15.5715C31.6254 16.8399 32.6431 24.2684 32.86 27.2253C32.506 27.3181 32.1592 27.4304 31.8232 27.5616Z" fill="#0085CD"/>
</svg>
