<?xml version="1.0" encoding="utf-8"?>
<!-- Generator: Adobe Illustrator 25.0.1, SVG Export Plug-In . SVG Version: 6.00 Build 0)  -->
<svg version="1.1" id="Слой_1" xmlns="http://www.w3.org/2000/svg" xmlns:xlink="http://www.w3.org/1999/xlink" x="0px" y="0px"
	 viewBox="0 0 220 100" style="enable-background:new 0 0 220 100;" xml:space="preserve">
<style type="text/css">
	.st0{fill-rule:evenodd;clip-rule:evenodd;fill:#4F79A1;}
</style>
<path class="st0" d="M55,83.9c0.8,0.3,1.5,0.8,2,1.4c0.5,0.6,0.7,1.4,0.7,2.2c0,0.9-0.3,1.8-0.9,2.4c-0.6,0.7-1.5,1.2-2.6,1.6
	c-1.1,0.4-2.3,0.6-3.6,0.6c-1,0-2.1-0.1-3.1-0.4c-1.1-0.2-2.1-0.6-3-1.1l1.3-3c0.7,0.4,1.4,0.6,2.2,0.8c0.8,0.2,1.5,0.3,2.2,0.3
	c0.9,0,1.7-0.2,2.3-0.5c0.6-0.3,0.9-0.7,0.9-1.3c0-0.5-0.2-0.8-0.6-1c-0.4-0.2-0.9-0.3-1.5-0.3h-3.9v-3.1h3.5c0.6,0,1-0.1,1.3-0.4
	c0.3-0.2,0.5-0.5,0.5-0.9c0-0.5-0.2-0.9-0.7-1.1c-0.5-0.3-1.1-0.4-1.9-0.4c-0.6,0-1.3,0.1-2,0.3c-0.7,0.2-1.4,0.4-2,0.8l-1.3-3.2
	c1.6-0.8,3.4-1.2,5.3-1.2c1.2,0,2.4,0.2,3.4,0.5c1.1,0.4,1.9,0.9,2.5,1.5c0.6,0.7,0.9,1.4,0.9,2.4c0,0.7-0.2,1.3-0.6,1.9
	C56.1,83.2,55.6,83.6,55,83.9L55,83.9z M77.9,88.8h-6.4l-1.2,2.9H66l6.7-15.1h4.2l6.7,15.1h-4.4L77.9,88.8L77.9,88.8z M76.7,85.7
	l-1.9-4.8l-1.9,4.8H76.7L76.7,85.7z M107.1,76.7l-6.3,11.7c-0.7,1.3-1.5,2.2-2.4,2.8c-0.9,0.6-2,1-3.1,1c-0.8,0-1.7-0.2-2.7-0.6
	l1-3.2c0.6,0.2,1.1,0.3,1.5,0.3c0.4,0,0.8-0.1,1.1-0.3c0.3-0.2,0.6-0.5,0.9-0.9l-5.9-10.9h4.5l3.5,7.3l3.7-7.3L107.1,76.7
	L107.1,76.7z M116.4,76.7H129V80h-8.4v2.4h3.9c1.8,0,3.2,0.4,4.2,1.2c1,0.8,1.5,1.9,1.5,3.3c0,1.5-0.5,2.7-1.6,3.6
	c-1.1,0.9-2.6,1.3-4.6,1.3h-7.6L116.4,76.7L116.4,76.7z M123.6,88.7c0.7,0,1.3-0.1,1.6-0.4c0.4-0.3,0.6-0.7,0.6-1.2
	c0-1.1-0.7-1.6-2.2-1.6h-3.1v3.3H123.6L123.6,88.7z M152,88.5v3.3h-12.1V76.7h11.8V80h-7.6v2.5h6.7v3.2h-6.7v2.8L152,88.5L152,88.5z
	 M168.9,76.7c1.4,0,2.6,0.2,3.6,0.7c1,0.5,1.8,1.1,2.3,1.9c0.5,0.8,0.8,1.8,0.8,3s-0.3,2.1-0.8,3c-0.5,0.8-1.3,1.5-2.3,1.9
	c-1,0.5-2.2,0.7-3.6,0.7h-2.6v3.9H162V76.7H168.9L168.9,76.7z M168.6,84.4c0.9,0,1.5-0.2,2-0.6c0.5-0.4,0.7-0.9,0.7-1.6
	c0-0.7-0.2-1.3-0.7-1.6c-0.5-0.4-1.1-0.6-2-0.6h-2.4v4.4H168.6z"/>
<path class="st0" d="M110,1.6l25.9,14.9v29.9l-8.2,4.8V21.3L101.8,6.4L110,1.6L110,1.6z M121.9,27L86.2,47.6L110,61.3l13.7-7.9V30
	l-7.6,9.5L121.9,27L121.9,27z M84.1,44l35.7-20.6l-13.7-1.3l12-1.8L97.8,8.7l-13.7,7.9V44z"/>
</svg>
